<svg width="264" height="264" viewBox="0 0 264 264" fill="none" xmlns="http://www.w3.org/2000/svg">
<g filter="url(#filter0_d_101_16)">
<g filter="url(#filter1_d_101_16)">
<rect x="4.5" y="0.5" width="84" height="84" fill="white" stroke="black"/>
<rect x="89.5" y="0.5" width="84" height="84" fill="white" stroke="black"/>
<rect x="4.5" y="85.5" width="84" height="84" fill="white" stroke="black"/>
<rect x="174.5" y="85.5" width="84" height="84" fill="white" stroke="black"/>
<rect x="89.5" y="85.5" width="84" height="84" fill="white" stroke="black"/>
<rect x="4.5" y="170.5" width="84" height="84" fill="white" stroke="black"/>
<rect x="174.5" y="170.5" width="84" height="84" fill="white" stroke="black"/>
<rect x="89.5" y="170.5" width="84" height="84" fill="white" stroke="black"/>
<rect x="174.5" y="0.5" width="84" height="84" fill="white" stroke="black"/>
</g>
<rect x="5" y="1" width="254" height="254" stroke="white" stroke-width="2"/>
<g filter="url(#filter2_d_101_16)">
<path d="M216.499 227.576C212.563 227.576 209.635 226.568 207.715 224.552C205.827 222.504 205.203 219.448 205.843 215.384L208.915 196.136C208.979 195.752 209.171 195.56 209.491 195.56H214.003C214.387 195.56 214.547 195.752 214.483 196.136L211.411 215.48C211.059 217.752 211.299 219.512 212.131 220.76C212.963 221.976 214.531 222.584 216.835 222.584C219.043 222.584 220.771 221.976 222.019 220.76C223.267 219.544 224.067 217.736 224.419 215.336L227.491 196.136C227.555 195.752 227.747 195.56 228.067 195.56H232.579C232.963 195.56 233.123 195.752 233.059 196.136L229.939 215.816C229.523 218.376 228.739 220.536 227.587 222.296C226.467 224.024 224.979 225.336 223.123 226.232C221.299 227.128 219.091 227.576 216.499 227.576Z" fill="url(#paint0_linear_101_16)"/>
</g>
<g filter="url(#filter3_d_101_16)">
<path d="M131.091 142.576C126.963 142.576 123.955 141.488 122.067 139.312C120.211 137.136 119.587 134.096 120.195 130.192L121.635 121.312C122.211 117.536 123.635 114.704 125.907 112.816C128.211 110.928 131.347 109.984 135.315 109.984C137.907 109.984 140.099 110.432 141.891 111.328C143.715 112.224 145.011 113.504 145.779 115.168C146.547 116.832 146.659 118.832 146.115 121.168C146.019 121.552 145.827 121.744 145.539 121.744H141.027C140.675 121.744 140.515 121.552 140.547 121.168C140.899 119.216 140.595 117.712 139.635 116.656C138.707 115.568 137.075 115.024 134.739 115.024C132.563 115.024 130.835 115.552 129.555 116.608C128.307 117.664 127.507 119.312 127.155 121.552L125.811 130.144C125.427 132.64 125.715 134.496 126.675 135.712C127.667 136.928 129.315 137.536 131.619 137.536C133.827 137.536 135.539 137.008 136.755 135.952C138.003 134.896 138.723 133.376 138.915 131.392C138.947 131.008 139.123 130.816 139.443 130.816H144.003C144.387 130.816 144.563 131.008 144.531 131.392C144.435 133.76 143.827 135.776 142.707 137.44C141.619 139.104 140.099 140.384 138.147 141.28C136.195 142.144 133.843 142.576 131.091 142.576Z" fill="url(#paint1_linear_101_16)"/>
</g>
<g filter="url(#filter4_d_101_16)">
<path d="M42.8822 57C42.4662 57 42.2902 56.808 42.3542 56.424L47.1542 26.136C47.2182 25.752 47.4102 25.56 47.7302 25.56H52.2422C52.6582 25.56 52.8342 25.752 52.7702 26.136L47.9702 56.424C47.9062 56.808 47.7142 57 47.3942 57H42.8822Z" fill="url(#paint2_linear_101_16)"/>
</g>
</g>
<defs>
<filter id="filter0_d_101_16" x="0" y="0" width="264" height="264" filterUnits="userSpaceOnUse" color-interpolation-filters="sRGB">
<feFlood flood-opacity="0" result="BackgroundImageFix"/>
<feColorMatrix in="SourceAlpha" type="matrix" values="0 0 0 0 0 0 0 0 0 0 0 0 0 0 0 0 0 0 127 0" result="hardAlpha"/>
<feOffset dy="4"/>
<feGaussianBlur stdDeviation="2"/>
<feComposite in2="hardAlpha" operator="out"/>
<feColorMatrix type="matrix" values="0 0 0 0 0 0 0 0 0 0 0 0 0 0 0 0 0 0 0.25 0"/>
<feBlend mode="normal" in2="BackgroundImageFix" result="effect1_dropShadow_101_16"/>
<feBlend mode="normal" in="SourceGraphic" in2="effect1_dropShadow_101_16" result="shape"/>
</filter>
<filter id="filter1_d_101_16" x="0" y="0" width="263" height="263" filterUnits="userSpaceOnUse" color-interpolation-filters="sRGB">
<feFlood flood-opacity="0" result="BackgroundImageFix"/>
<feColorMatrix in="SourceAlpha" type="matrix" values="0 0 0 0 0 0 0 0 0 0 0 0 0 0 0 0 0 0 127 0" result="hardAlpha"/>
<feOffset dy="4"/>
<feGaussianBlur stdDeviation="2"/>
<feComposite in2="hardAlpha" operator="out"/>
<feColorMatrix type="matrix" values="0 0 0 0 0 0 0 0 0 0 0 0 0 0 0 0 0 0 0.25 0"/>
<feBlend mode="normal" in2="BackgroundImageFix" result="effect1_dropShadow_101_16"/>
<feBlend mode="normal" in="SourceGraphic" in2="effect1_dropShadow_101_16" result="shape"/>
</filter>
<filter id="filter2_d_101_16" x="200.883" y="195.56" width="36.272" height="40.016" filterUnits="userSpaceOnUse" color-interpolation-filters="sRGB">
<feFlood flood-opacity="0" result="BackgroundImageFix"/>
<feColorMatrix in="SourceAlpha" type="matrix" values="0 0 0 0 0 0 0 0 0 0 0 0 0 0 0 0 0 0 127 0" result="hardAlpha"/>
<feOffset dy="4"/>
<feGaussianBlur stdDeviation="2"/>
<feComposite in2="hardAlpha" operator="out"/>
<feColorMatrix type="matrix" values="0 0 0 0 0 0 0 0 0 0 0 0 0 0 0 0 0 0 0.25 0"/>
<feBlend mode="normal" in2="BackgroundImageFix" result="effect1_dropShadow_101_16"/>
<feBlend mode="normal" in="SourceGraphic" in2="effect1_dropShadow_101_16" result="shape"/>
</filter>
<filter id="filter3_d_101_16" x="115.283" y="109.984" width="35.648" height="40.592" filterUnits="userSpaceOnUse" color-interpolation-filters="sRGB">
<feFlood flood-opacity="0" result="BackgroundImageFix"/>
<feColorMatrix in="SourceAlpha" type="matrix" values="0 0 0 0 0 0 0 0 0 0 0 0 0 0 0 0 0 0 127 0" result="hardAlpha"/>
<feOffset dy="4"/>
<feGaussianBlur stdDeviation="2"/>
<feComposite in2="hardAlpha" operator="out"/>
<feColorMatrix type="matrix" values="0 0 0 0 0 0 0 0 0 0 0 0 0 0 0 0 0 0 0.25 0"/>
<feBlend mode="normal" in2="BackgroundImageFix" result="effect1_dropShadow_101_16"/>
<feBlend mode="normal" in="SourceGraphic" in2="effect1_dropShadow_101_16" result="shape"/>
</filter>
<filter id="filter4_d_101_16" x="38.2582" y="25.56" width="18.608" height="39.44" filterUnits="userSpaceOnUse" color-interpolation-filters="sRGB">
<feFlood flood-opacity="0" result="BackgroundImageFix"/>
<feColorMatrix in="SourceAlpha" type="matrix" values="0 0 0 0 0 0 0 0 0 0 0 0 0 0 0 0 0 0 127 0" result="hardAlpha"/>
<feOffset dy="4"/>
<feGaussianBlur stdDeviation="2"/>
<feComposite in2="hardAlpha" operator="out"/>
<feColorMatrix type="matrix" values="0 0 0 0 0 0 0 0 0 0 0 0 0 0 0 0 0 0 0.25 0"/>
<feBlend mode="normal" in2="BackgroundImageFix" result="effect1_dropShadow_101_16"/>
<feBlend mode="normal" in="SourceGraphic" in2="effect1_dropShadow_101_16" result="shape"/>
</filter>
<linearGradient id="paint0_linear_101_16" x1="217.5" y1="169" x2="217.5" y2="256" gradientUnits="userSpaceOnUse">
<stop stop-color="#0000FF"/>
<stop offset="1"/>
</linearGradient>
<linearGradient id="paint1_linear_101_16" x1="132" y1="86" x2="132" y2="169" gradientUnits="userSpaceOnUse">
<stop stop-color="#00FF00"/>
<stop offset="1"/>
</linearGradient>
<linearGradient id="paint2_linear_101_16" x1="46.5" y1="0" x2="46.5" y2="86" gradientUnits="userSpaceOnUse">
<stop stop-color="#FF0000"/>
<stop offset="1"/>
</linearGradient>
</defs>
</svg>
